<?xml version="1.0" encoding="UTF-8"?>
<!-- Created with Inkscape (http://www.inkscape.org/) -->
<svg width="90.942mm" height="87.948mm" version="1.1" viewBox="0 0 90.942 87.948" xmlns="http://www.w3.org/2000/svg">
 <g transform="translate(-31.848 -35.041)">
  <path d="m72.309 117.29v-0.70992c-6.9283-1.4342-13.24-4.4402-18.45-9.2892-4.4997-4.1888-7.9537-9.0015-9.9327-14.839-1.951-5.7542-2.7168-11.673-1.9263-17.741 4.8078-36.906 59.467-40.784 69.519-4.9674 1.9976 7.118 1.8358 15.531 0.22781 22.708-2.3283 10.388-8.9616 16.254-15.31 24.128 26.139-8.9011 33.923-40.509 18.42-62.448-10.962-15.513-31.434-22.569-49.644-17.437-18.44 5.1969-32.474 21.426-33.325 40.855-0.73389 16.761 8.8474 39.665 27.648 42.337 4.2166 0.59929 8.7753-1.4625 12.773-2.5973m23.418-62.448-9.2253 9.9349 2.1289-8.5157h-0.70966l-9.2253 9.2253 1.4193-8.5157h-0.70966l-14.033 12.904-4.1253 7.9352-5.969 6.1267c2.6761 0.70405 6.2804 0.48194 7.4655 3.5876 2.277 5.9681-13.183 19.224 1.0502 21.514 11.218 1.806 6.593-13.676 5.9898-19.425-0.36007-3.432 1.3443-6.9259 5.365-5.7319 8.7648 2.6031 13.702 15.41 10.394 23.473-3.236 7.8883-11.946 13.456-20.33 14.193v0.70994c10.987 2.6157 24.272-1.9111 29.872-12.064 5.9944-10.868 1.0927-27.957-12.131-30.515v-0.70992c10.908-0.0012 21.532-4.0827 18.451-17.031h-0.70966c-2.4285 5.1038-6.2175 9.3323-12.064 9.935v-0.70992c5.9646-2.0291 11.527-10.473 7.0964-16.322m-17.031 10.645-0.70966 0.70992 0.70966-0.70992m-10.645 9.2252s0.41816 1.7108 0 2.1289c-0.41816 0.41824-1.0011 0.41824-1.4193 0-0.41816-0.41824-0.41816-1.7108 0-2.1289 0.41816-0.41824 1.4193 0 1.4193 0" fill="#97c120"/>
 </g>
</svg>
