<svg width="91" height="88" viewBox="0 0 91 88" fill="none" xmlns="http://www.w3.org/2000/svg">
<path d="M40.4609 82.2489V81.539C33.5326 80.1048 27.2209 77.0988 22.0109 72.2498C17.5112 68.061 14.0572 63.2483 12.0782 57.4108C10.1272 51.6566 9.36139 45.7378 10.1519 39.6698C14.9597 2.76381 69.6189 -1.1142 79.6709 34.7024C81.6685 41.8204 81.5067 50.2334 79.8987 57.4104C77.5704 67.7984 70.9371 73.6644 64.5887 81.5384C90.7277 72.6373 98.5117 41.0294 83.0087 19.0904C72.0467 3.57741 51.5747 -3.47859 33.3647 1.65341C14.9247 6.85031 0.890698 23.0794 0.0396981 42.5084C-0.694192 59.2694 8.8871 82.1734 27.6877 84.8454C31.9043 85.4447 36.463 83.3829 40.4607 82.2481L40.4609 82.2489ZM63.8787 19.8001L54.6534 29.735L56.7823 21.2193H56.0726L46.8473 30.4446L48.2666 21.9289H47.557L33.524 34.8329L29.3987 42.7681L23.4297 48.8948C26.1058 49.5989 29.7101 49.3768 30.8952 52.4824C33.1722 58.4505 17.7122 71.7064 31.9454 73.9964C43.1634 75.8024 38.5384 60.3204 37.9352 54.5714C37.5751 51.1394 39.2795 47.6455 43.3002 48.8395C52.065 51.4426 57.0022 64.2495 53.6942 72.3125C50.4582 80.2008 41.7482 85.7685 33.3642 86.5055V87.2155C44.3512 89.8312 57.6362 85.3044 63.2362 75.1515C69.2306 64.2835 64.3289 47.1944 51.1052 44.6364V43.9265C62.0132 43.9253 72.6372 39.8438 69.5562 26.8955H68.8465C66.418 31.9993 62.629 36.2278 56.7825 36.8305V36.1206C62.7471 34.0915 68.3095 25.6476 63.8789 19.7986L63.8787 19.8001ZM46.8479 30.4436L46.1383 31.1535L46.8479 30.4436ZM36.2029 39.6688C36.2029 39.6688 36.6211 41.3796 36.2029 41.7977C35.7848 42.216 35.2018 42.216 34.7836 41.7977C34.3655 41.3795 34.3655 40.0869 34.7836 39.6688C35.2018 39.2506 36.2029 39.6688 36.2029 39.6688Z" fill="#98c222"/>
</svg>
