<?xml version="1.0" encoding="UTF-8" standalone="no"?>
<svg
   width="703.94989"
   height="703.95074"
   viewBox="0 0 703.94989 703.95074"
   version="1.1"
   id="svg4"
   xmlns="http://www.w3.org/2000/svg"
   xmlnsSvg="http://www.w3.org/2000/svg">
  <defs
     id="defs8" />
  <path
     fill="#000000"
     d="m 267.47495,10.275368 7.9,32 a 319.6,319.6 0 0 0 -88.4,36.6 l -16.9,-28.3 a 347.6,347.6 0 0 1 97.4,-40.3 z m 169,0 -7.9,32 a 319.6,319.6 0 0 1 88.4,36.6 l 17.1,-28.3 a 350.1,350.1 0 0 0 -97.6,-40.3 z M 50.574947,169.97537 a 349.5,349.5 0 0 0 -40.3,97.5 l 32,7.9 a 319.6,319.6 0 0 1 36.6,-88.4 z m -17.6,182 a 318.5,318.5 0 0 1 3.6,-47.8 l -32.6,-5 a 352,352 0 0 0 0,105.5 l 32.6,-4.9 a 319.5,319.5 0 0 1 -3.6,-47.8 z m 500.900003,301.3 -16.9,-28.2 a 317.8,317.8 0 0 1 -88.3,36.6 l 7.9,32 a 350.3,350.3 0 0 0 97.3,-40.4 z m 137.1,-301.3 a 319.5,319.5 0 0 1 -3.6,47.8 l 32.6,4.9 a 352,352 0 0 0 0,-105.5 l -32.6,5 a 318.5,318.5 0 0 1 3.6,47.8 z m 22.7,84.4 -32,-7.9 a 319,319 0 0 1 -36.6,88.5 l 28.3,17 a 348.9,348.9 0 0 0 40.3,-97.6 z m -293.9,231 a 319.1,319.1 0 0 1 -95.6,0 l -4.9,32.6 a 351.3,351.3 0 0 0 105.4,0 z m 209,-126.2 a 318.1,318.1 0 0 1 -67.6,67.5 l 19.6,26.6 a 355.1,355.1 0 0 0 74.6,-74.3 z m -67.6,-446.000002 a 318.6,318.6 0 0 1 67.6,67.600002 l 26.6,-19.8 a 354.6,354.6 0 0 0 -74.4,-74.400002 z M 95.174947,162.77537 A 318.6,318.6 0 0 1 162.77495,95.175368 l -19.8,-26.6 A 354.6,354.6 0 0 0 68.574947,142.97537 Z m 558.200003,7.2 -28.3,17 a 317.8,317.8 0 0 1 36.6,88.3 l 32,-7.9 a 348.9,348.9 0 0 0 -40.3,-97.4 z m -349.2,-133.400002 a 319.1,319.1 0 0 1 95.6,0 l 4.9,-32.6 a 351.3,351.3 0 0 0 -105.4,0 z m -192.1,607.500002 -68.100003,15.8 15.9,-68.1 -32.1,-7.5 -15.9,68.1 a 33,33 0 0 0 24.6,39.7 34.5,34.5 0 0 0 15,0 l 68.100003,-15.7 z m -77.500003,-89.2 32.2,7.4 11,-47.2 a 316.2,316.2 0 0 1 -35.5,-86.6 l -32,7.9 a 353.3,353.3 0 0 0 32.4,83.7 z m 154.000003,71.4 -47.2,11 7.5,32.2 34.7,-8.1 a 349,349 0 0 0 83.7,32.4 l 7.9,-32 a 316.7,316.7 0 0 1 -86.3,-35.7 z m 163.4,-560.300002 c -158,0.1 -285.900003,128.200002 -285.900003,286.100002 a 286.7,286.7 0 0 0 43.900003,152 l -27.500003,117.4 117.300003,-27.5 c 133.7,84.1 310.3,44 394.4,-89.6 84.1,-133.6 44.1,-310.2 -89.5,-394.4"
     id="path2" />
</svg>
